:SAMPLES-PER-SECOND 30
:FULLY-SPECIFIED
:DEGREES
888
root  52.1805 33.2884 1.40398 143.966 74.4194 138.575
RightUpLeg  -42.2101 -18.2754 -19.6069
RightLeg  61.2985 -1.60503 -3.70592
RightFoot  -16.3599 0.134981 5.60894
RightToes  -1.81608e-008 0 -3.6325e-017
Spine  29.29 -3.92142 -5.95369
Spine1  -14.4145 -5.71712 9.22788
HEad  -39.252 -18.2911 24.5387
LeftShoulder1  0.795697 -0.865425 -10.9865
LeftArm  -7.02332 -59.8725 -50.6716
LeftForeArm  -21.2321 -21.0081 -5.50663
LeftHand  -0.231012 8.24872 -7.09803
RightShoulder  0.0540762 -3.17599 10.1658
RightArm  -20.0844 43.3256 21.0758
RightForeArm  -33.3508 53.013 17.1793
RightHand  -0.295666 2.65742 -4.47392
LeftUpLeg  -8.90879 17.6863 24.9249
LeftLeg  2.8114 2.1158 2.02434
LeftFoot  2.68781 1.61193 -13.3604
LeftToes  1.81866e-011 -6.13092e-011 2.52013e-011
889
root  51.7358 32.998 0.922263 148.668 74.6316 143.381
RightUpLeg  -42.9674 -18.4383 -19.434
RightLeg  61.7576 -1.64646 -3.86282
RightFoot  -15.4982 0.121204 6.24032
RightToes  -1.81608e-008 0 -3.6325e-017
Spine  29.2679 -3.75664 -6.40849
Spine1  -13.7371 -5.6987 9.21343
HEad  -39.4577 -17.9118 25.3328
LeftShoulder1  0.800154 -0.934758 -10.7923
LeftArm  -6.64064 -60.5788 -51.3958
LeftForeArm  -21.0172 -20.8314 -5.46305
LeftHand  -0.244217 8.54798 -6.8435
RightShoulder  0.0698486 -3.09606 10.7544
RightArm  -21.1822 42.4738 21.6695
RightForeArm  -32.0945 53.0838 17.1654
RightHand  -0.261272 2.51992 -4.04487
LeftUpLeg  -8.6999 17.4369 25.3481
LeftLeg  1.29122 3.76487 2.58803
LeftFoot  5.73502 2.7737 -17.8357
LeftToes  1.81866e-011 -6.13092e-011 2.52013e-011
890
root  51.2522 32.728 0.354174 155.029 75.1299 149.998
RightUpLeg  -43.3976 -18.4594 -18.8283
RightLeg  61.7095 -1.64232 -3.84815
RightFoot  -14.4828 0.100628 7.2505
RightToes  -1.81608e-008 0 -3.6325e-017
Spine  29.8382 -3.3493 -6.6543
Spine1  -13.5499 -5.50262 10.4904
HEad  -40.0736 -17.3547 26.2059
LeftShoulder1  0.756087 -0.58432 -11.287
LeftArm  -5.16626 -61.4833 -52.1079
LeftForeArm  -21.1897 -20.7243 -5.49987
LeftHand  -0.224264 8.17777 -7.00001
RightShoulder  0.0963442 -2.9497 10.7138
RightArm  -21.8932 41.1122 23.1272
RightForeArm  -30.8652 53.2521 17.2111
RightHand  -0.249487 2.99951 -3.67559
LeftUpLeg  -8.34378 18.7103 27.1664
LeftLeg  -2.03455 1.29153 1.68325
LeftFoot  13.9647 6.056 -27.138
LeftToes  1.81866e-011 -6.13092e-011 2.52013e-011
891
root  50.7637 32.6628 -0.155827 160.291 74.3165 155.061
RightUpLeg  -43.4209 -19.4585 -19.0708
RightLeg  60.7523 -1.67007 -3.74801
RightFoot  -12.9896 0.0277379 8.04085
RightToes  -1.81608e-008 0 -3.6325e-017
Spine  30.3323 -3.12418 -8.32779
Spine1  -13.7009 -5.7516 11.3044
HEad  -39.7472 -17.1836 27.5259
LeftShoulder1  0.699942 -0.414423 -10.6082
LeftArm  -3.65451 -62.1223 -53.0837
LeftForeArm  -21.2755 -20.5913 -5.52954
LeftHand  -0.205289 8.08444 -6.50955
RightShoulder  0.128099 -2.80941 11.8189
RightArm  -22.086 39.4444 24.508
RightForeArm  -29.7622 53.4909 17.3071
RightHand  -0.217494 2.90101 -3.26776
LeftUpLeg  -10.3487 20.0191 27.3823
LeftLeg  -1.57816 -1.41365 0.47802
LeftFoot  15.7497 7.63916 -31.4696
LeftToes  1.81866e-011 -6.13092e-011 2.52013e-011
892
root  50.2287 32.7847 -0.61722 162.473 73.5449 156.746
RightUpLeg  -43.3819 -19.8376 -19.7956
RightLeg  58.7794 -1.98488 -3.99891
RightFoot  -10.9137 -0.107957 8.77869
RightToes  -1.81608e-008 0 -3.6325e-017
Spine  30.5777 -2.25218 -11.1642
Spine1  -13.4822 -5.67351 12.5515
HEad  -40.6018 -17.0913 29.3124
LeftShoulder1  0.687073 -0.258043 -11.0584
LeftArm  -2.84669 -62.8368 -54.2595
LeftForeArm  -19.7611 -20.8491 -5.50983
LeftHand  -0.232441 8.46639 -6.61659
RightShoulder  0.142612 -2.75565 12.6133
RightArm  -22.1315 37.2457 26.2864
RightForeArm  -28.8444 54.3086 17.7925
RightHand  -0.24487 3.05546 -3.59981
LeftUpLeg  -11.853 20.653 26.7661
LeftLeg  -1.46999 -1.59645 -0.606678
LeftFoot  14.8737 8.14178 -34.4085
LeftToes  1.81866e-011 -6.13092e-011 2.52013e-011
893
root  49.7411 33.1746 -1.13391 165.97 72.961 159.218
RightUpLeg  -42.8426 -19.8148 -20.0132
RightLeg  55.0709 -2.75185 -4.6474
RightFoot  -8.13842 -0.324784 9.62679
RightToes  -1.81608e-008 0 -3.6325e-017
Spine  30.4654 -1.86969 -12.1173
Spine1  -13.3334 -5.46368 11.6172
HEad  -42.5306 -17.0613 31.6763
LeftShoulder1  0.759695 -0.830394 -10.2075
LeftArm  -2.71801 -62.3885 -55.613
LeftForeArm  -17.9851 -22.0077 -5.58228
LeftHand  -0.217029 8.12578 -6.84812
RightShoulder  0.121403 -2.89917 13.7825
RightArm  -22.7009 33.9579 28.4786
RightForeArm  -26.755 55.5154 18.5006
RightHand  -0.224285 3.19755 -3.27806
LeftUpLeg  -13.0744 20.0925 25.4993
LeftLeg  -3.20138 -0.206507 -0.70736
LeftFoot  15.2301 8.19142 -34.1674
LeftToes  1.81866e-011 -6.13092e-011 2.52013e-011
894
root  49.2415 33.6671 -1.75033 171.456 71.8549 163.569
RightUpLeg  -41.5171 -20.9563 -19.7443
RightLeg  50.1532 -3.40562 -4.7163
RightFoot  -5.04628 -0.606031 10.3427
RightToes  -1.81608e-008 0 -3.6325e-017
Spine  30.3065 -1.93033 -12.6273
Spine1  -13.8135 -5.53647 11.5202
HEad  -43.5116 -16.9349 32.718
LeftShoulder1  0.876407 -1.43815 -10.4702
LeftArm  -1.60886 -61.8304 -55.942
LeftForeArm  -17.1576 -22.4209 -5.63871
LeftHand  -0.187601 7.89213 -6.3005
RightShoulder  0.224303 -2.41747 14.1006
RightArm  -22.6504 30.6553 30.4401
RightForeArm  -25.3531 56.2394 18.9448
RightHand  -0.237078 2.54103 -3.66936
LeftUpLeg  -15.6459 18.8801 23.7219
LeftLeg  -3.91263 0.585102 -0.0611267
LeftFoot  16.3043 7.70824 -31.0814
LeftToes  1.81866e-011 -6.13092e-011 2.52013e-011
895
root  48.7059 34.1645 -2.44293 175.81 71.3559 167.144
RightUpLeg  -39.6991 -21.9331 -19.3986
RightLeg  44.3418 -3.86338 -4.34151
RightFoot  -1.75962 -0.937529 11.04
RightToes  -1.81608e-008 0 -3.6325e-017
Spine  29.559 -1.7795 -12.9538
Spine1  -13.1925 -5.38249 10.9954
HEad  -44.0458 -17.2082 33.885
LeftShoulder1  0.967323 -2.04814 -10.111
LeftArm  0.168505 -62.0903 -56.7226
LeftForeArm  -17.2027 -22.0337 -5.60636
LeftHand  -0.22432 8.64422 -5.94661
RightShoulder  0.246239 -2.34237 14.7524
RightArm  -22.4395 28.6826 31.0072
RightForeArm  -24.5931 56.5208 19.1107
RightHand  -0.186574 2.97872 -2.81906
LeftUpLeg  -17.9158 17.9185 22.2923
LeftLeg  -3.7595 0.350089 0.480219
LeftFoot  17.7351 6.97832 -26.8894
LeftToes  1.81866e-011 -6.13092e-011 2.52013e-011
896
root  48.1862 34.6321 -3.23316 177.584 72.4977 168.761
RightUpLeg  -37.6157 -22.1995 -19.2907
RightLeg  37.7925 -3.57552 -3.23957
RightFoot  2.20698 -1.30602 11.0799
RightToes  -1.81608e-008 0 -3.6325e-017
Spine  28.7297 -1.14327 -13.8852
Spine1  -12.1176 -4.91505 10.4899
HEad  -43.9754 -16.9038 34.6874
LeftShoulder1  0.939712 -1.8665 -10.1976
LeftArm  1.34004 -62.3573 -56.9819
LeftForeArm  -17.1755 -21.7074 -5.58763
LeftHand  -0.241773 8.73603 -6.36357
RightShoulder  0.179159 -2.67806 15.4277
RightArm  -21.2674 28.5282 31.7674
RightForeArm  -25.2365 55.8504 18.6535
RightHand  -0.21962 3.92117 -3.00162
LeftUpLeg  -18.4496 17.6887 21.6391
LeftLeg  -2.93543 1.60923 0.331418
LeftFoot  17.9625 6.57021 -25.2025
LeftToes  1.81866e-011 -6.13092e-011 2.52013e-011
897
root  47.6644 35.1333 -4.11811 179.745 74.4778 170.932
RightUpLeg  -34.9421 -22.5914 -18.6736
RightLeg  29.4519 -2.19133 -1.64332
RightFoot  6.25473 -1.73588 11.4551
RightToes  -1.81608e-008 0 -3.6325e-017
Spine  28.0853 -0.74098 -14.5329
Spine1  -11.638 -4.5684 9.88793
HEad  -42.8294 -16.1489 34.8666
LeftShoulder1  0.874172 -1.3617 -10.7261
LeftArm  0.669628 -61.4817 -56.1572
LeftForeArm  -16.2902 -22.2158 -5.60168
LeftHand  -0.269058 9.16334 -6.37443
RightShoulder  0.205516 -2.57814 15.9696
RightArm  -19.783 28.2559 33.5685
RightForeArm  -25.2041 55.7961 18.6133
RightHand  -0.248279 3.2733 -3.57529
LeftUpLeg  -17.9832 18.1449 21.5586
LeftLeg  -2.72017 2.95726 -0.435244
LeftFoot  17.8483 6.17277 -23.8377
LeftToes  1.81866e-011 -6.13092e-011 2.52013e-011
